# xmcd
#
# Track frame offsets:
#	200
#	14637
#	27457
#	44232
#	58575
#	71807
#	90592
#	102495
#	115512
#	128892
#	140497
#	155242
#
# Disc length: 2363 seconds
#
# Revision: 2
# Processed by: cddbd v1.4PL0 Copyright (c) Steve Scherf et al.
# Submitted via: EasyCDDAExtractor 4.5.0.2
#
DISCID=b409390c
DTITLE=IIIrd Tyme Out
DYEAR=1991
DGENRE=Bluegrass
TTITLE0=Moundsville Pen
TTITLE1=Love Gone Cold
TTITLE2=Miles of Texas
TTITLE3=When He Reached Down His Hand for Me
TTITLE4=Phone Call Away
TTITLE5=Woman Dressed in Scarlet
TTITLE6=When My Time Comes to Go
TTITLE7=Thanks a Lot
TTITLE8=Blue Ridge Mountain Girl
TTITLE9=Separating Hearts
TTITLE10=CAndle in the Wind
TTITLE11=Erase the Miles
EXTD=
EXTT0=
EXTT1=
EXTT2=
EXTT3=
EXTT4=
EXTT5=
EXTT6=
EXTT7=
EXTT8=
EXTT9=
EXTT10=
EXTT11=
PLAYORDER=
